<?xml version="1.0" encoding="UTF-8"?>
<svg xmlns="http://www.w3.org/2000/svg" viewBox="0 0 1400 920" width="1400" height="920">
  <defs>
    <style>
      .title { font: 700 22px Arial, sans-serif; fill: #1a1a1a; }
      .lane-title { font: 700 15px Arial, sans-serif; fill: #2c3e50; }
      .box-title { font: 700 13px Arial, sans-serif; fill: #1a1a1a; }
      .box-text { font: 400 11.5px Arial, sans-serif; fill: #333; }
      .chain-label { font: 700 12px Arial, sans-serif; fill: #1565c0; }
      .arrow-label { font: 400 10.5px Arial, sans-serif; fill: #555; }
      .proto { font: 400 10px Consolas, monospace; fill: #666; }
    </style>
    <marker id="arrow" markerWidth="10" markerHeight="8" refX="9" refY="4" orient="auto">
      <polygon points="0 0, 10 4, 0 8" fill="#444"/>
    </marker>
    <marker id="arrow-blue" markerWidth="10" markerHeight="8" refX="9" refY="4" orient="auto">
      <polygon points="0 0, 10 4, 0 8" fill="#1565c0"/>
    </marker>
    <marker id="arrow-green" markerWidth="10" markerHeight="8" refX="9" refY="4" orient="auto">
      <polygon points="0 0, 10 4, 0 8" fill="#2e7d32"/>
    </marker>
    <marker id="arrow-orange" markerWidth="10" markerHeight="8" refX="9" refY="4" orient="auto">
      <polygon points="0 0, 10 4, 0 8" fill="#e65100"/>
    </marker>
  </defs>

  <!-- Background -->
  <rect width="1400" height="920" fill="#ffffff"/>

  <!-- Title -->
  <text x="700" y="38" text-anchor="middle" class="title">!B@C:BC@=0O AE5<0 ?@>3@0<<=>-0??0@0B=>3> :><?;5:A0 >BA;56820=8O !</text>

  <!-- Swimlane: Pilot + UAV -->
  <rect x="30" y="60" width="1340" height="200" rx="8" fill="#f8f9fa" stroke="#bdc3c7" stroke-width="1.5"/>
  <text x="50" y="88" class="lane-title">8;>B 8 ! (FPV-4@>= 8AA;54C5<>3> :;0AA0)</text>

  <!-- Pilot RC TX -->
  <rect x="55" y="110" width="130" height="56" rx="6" fill="#e3f2fd" stroke="#1976d2" stroke-width="1.5"/>
  <text x="120" y="132" text-anchor="middle" class="box-title">C;LB</text>
  <text x="120" y="150" text-anchor="middle" class="box-text">EdgeTX</text>

  <rect x="210" y="110" width="120" height="56" rx="6" fill="#e3f2fd" stroke="#1976d2" stroke-width="1.5"/>
  <text x="270" y="132" text-anchor="middle" class="box-title">5@540BG8:</text>
  <text x="270" y="150" text-anchor="middle" class="box-text">ELRS TX</text>

  <!-- Drone -->
  <rect x="900" y="95" width="440" height="145" rx="8" fill="#fff8e1" stroke="#f9a825" stroke-width="1.5"/>
  <text x="1120" y="118" text-anchor="middle" class="box-title">FPV-4@>= MADTrainer</text>
  <rect x="920" y="130" width="180" height="50" rx="5" fill="#fff" stroke="#f9a825" stroke-width="1"/>
  <text x="1010" y="152" text-anchor="middle" class="box-text">C@A>20O :0<5@0</text>
  <text x="1010" y="168" text-anchor="middle" class="proto">FPV, 45� / 130� FOV</text>
  <rect x="1120" y="130" width="100" height="50" rx="5" fill="#fff" stroke="#f9a825" stroke-width="1"/>
  <text x="1170" y="158" text-anchor="middle" class="box-text">HDZero VTX</text>
  <line x1="1100" y1="155" x2="1120" y2="155" stroke="#f9a825" stroke-width="1.5" marker-end="url(#arrow-orange)"/>

  <!-- RC radio link pilot to ground -->
  <path d="M 330 138 Q 520 100 620 138" fill="none" stroke="#1976d2" stroke-width="2" marker-end="url(#arrow-blue)"/>
  <text x="475" y="108" text-anchor="middle" class="arrow-label">@048>:0=0; ELRS</text>

  <!-- Video radio link drone to ground -->
  <path d="M 1220 180 Q 1220 250 1220 280" fill="none" stroke="#e65100" stroke-width="2" marker-end="url(#arrow-orange)"/>
  <text x="1285" y="235" class="arrow-label">2845>:0=0;</text>
  <text x="1285" y="248" class="arrow-label">HDZero</text>

  <!-- Swimlane: Ground station -->
  <rect x="30" y="280" width="1340" height="380" rx="8" fill="#f3f6f9" stroke="#bdc3c7" stroke-width="1.5"/>
  <text x="50" y="308" class="lane-title">075<=0O AB0=F8O ( / =>CB1C:)</text>

  <!-- RC chain label -->
  <text x="55" y="340" class="chain-label">RC-F5?>G:0</text>

  <rect x="55" y="355" width="130" height="56" rx="6" fill="#e3f2fd" stroke="#1976d2" stroke-width="1.5"/>
  <text x="120" y="377" text-anchor="middle" class="box-title">@8Q<=8:</text>
  <text x="120" y="395" text-anchor="middle" class="box-text">ELRS RX</text>

  <line x1="185" y1="383" x2="215" y2="383" stroke="#1976d2" stroke-width="2" marker-end="url(#arrow-blue)"/>

  <rect x="215" y="355" width="100" height="56" rx="6" fill="#e3f2fd" stroke="#1976d2" stroke-width="1.5"/>
  <text x="265" y="377" text-anchor="middle" class="box-title">ESP32</text>
  <text x="265" y="395" text-anchor="middle" class="box-text">?0@A8=3 CRSF</text>

  <line x1="315" y1="383" x2="345" y2="383" stroke="#1976d2" stroke-width="2" marker-end="url(#arrow-blue)"/>
  <text x="330" y="372" text-anchor="middle" class="proto">COM</text>

  <!-- Video chain label -->
  <text x="55" y="455" class="chain-label" fill="#e65100">845>B@0:B</text>

  <rect x="55" y="470" width="150" height="56" rx="6" fill="#fff3e0" stroke="#e65100" stroke-width="1.5"/>
  <text x="130" y="492" text-anchor="middle" class="box-title">@8Q<=8:</text>
  <text x="130" y="510" text-anchor="middle" class="box-text">HDZero EventVRX</text>

  <line x1="205" y1="498" x2="235" y2="498" stroke="#e65100" stroke-width="2" marker-end="url(#arrow-orange)"/>

  <rect x="235" y="470" width="150" height="56" rx="6" fill="#fff3e0" stroke="#e65100" stroke-width="1.5"/>
  <text x="310" y="492" text-anchor="middle" class="box-title">0E20B 2845></text>
  <text x="310" y="510" text-anchor="middle" class="box-text">:0@B0 / USB</text>

  <line x1="385" y1="498" x2="420" y2="498" stroke="#e65100" stroke-width="2" marker-end="url(#arrow-orange)"/>

  <!-- DCT main block -->
  <rect x="420" y="330" width="520" height="300" rx="10" fill="#e8f5e9" stroke="#2e7d32" stroke-width="2"/>
  <text x="680" y="358" text-anchor="middle" class="box-title">DCT  Data Collection Toolkit</text>
  <text x="680" y="376" text-anchor="middle" class="box-text">=075<=K9 ?@>3@0<<=K9 :><?;5:A</text>

  <!-- DCT submodules -->
  <rect x="445" y="395" width="115" height="72" rx="5" fill="#fff" stroke="#2e7d32" stroke-width="1"/>
  <text x="502" y="418" text-anchor="middle" class="box-title">Record</text>
  <text x="502" y="436" text-anchor="middle" class="box-text">70?8AL A5AA88</text>
  <text x="502" y="452" text-anchor="middle" class="proto">rc, video, meta</text>

  <rect x="575" y="395" width="115" height="72" rx="5" fill="#fff" stroke="#2e7d32" stroke-width="1"/>
  <text x="632" y="418" text-anchor="middle" class="box-title">Replay</text>
  <text x="632" y="436" text-anchor="middle" class="box-text">2>A?@>872545=85</text>
  <text x="632" y="452" text-anchor="middle" class="proto">0=0;87, HUD</text>

  <rect x="705" y="395" width="115" height="72" rx="5" fill="#fff" stroke="#2e7d32" stroke-width="1"/>
  <text x="762" y="418" text-anchor="middle" class="box-title">>:0;870F8O</text>
  <text x="762" y="436" text-anchor="middle" class="box-text">Particle Filter</text>
  <text x="762" y="452" text-anchor="middle" class="proto">RC+Rate, :0<5@0</text>

  <rect x="835" y="395" width="85" height="72" rx="5" fill="#fff" stroke="#2e7d32" stroke-width="1"/>
  <text x="877" y="418" text-anchor="middle" class="box-title">!8=E@.</text>
  <text x="877" y="436" text-anchor="middle" class="box-text">2@5<5==K5</text>
  <text x="877" y="452" text-anchor="middle" class="box-text"><5B:8</text>

  <rect x="445" y="490" width="230" height="52" rx="5" fill="#fff" stroke="#2e7d32" stroke-width="1"/>
  <text x="560" y="512" text-anchor="middle" class="box-title">%@0=8;8I5 A5AA88</text>
  <text x="560" y="530" text-anchor="middle" class="proto">rc_channels.parquet, video.mp4, telemetry, events</text>

  <rect x="695" y="490" width="225" height="52" rx="5" fill="#c8e6c9" stroke="#2e7d32" stroke-width="1.5"/>
  <text x="807" y="512" text-anchor="middle" class="box-title">MAVLink UDP Sender</text>
  <text x="807" y="530" text-anchor="middle" class="proto">HEARTBEAT, GLOBAL_POSITION_INT</text>

  <!-- Arrows into DCT -->
  <line x1="345" y1="383" x2="420" y2="420" stroke="#1976d2" stroke-width="2" marker-end="url(#arrow-blue)"/>
  <text x="378" y="395" class="arrow-label">RC-:0=0;K</text>

  <line x1="385" y1="498" x2="420" y2="480" stroke="#e65100" stroke-width="2" marker-end="url(#arrow-orange)"/>
  <text x="395" y="475" class="arrow-label">2845>?>B>:</text>

  <!-- Swimlane: External -->
  <rect x="30" y="680" width="1340" height="200" rx="8" fill="#fafafa" stroke="#bdc3c7" stroke-width="1.5"/>
  <text x="50" y="708" class="lane-title">=5H=OO A8AB5<0 <>=8B>@8=30 (;>:0;L=0O A5BL)</text>

  <!-- MAVLink arrow from DCT to NebosvodConnect -->
  <line x1="807" y1="630" x2="807" y2="735" stroke="#6a1b9a" stroke-width="2.5" marker-end="url(#arrow)"/>
  <rect x="720" y="638" width="175" height="36" rx="4" fill="#f3e5f5" stroke="#6a1b9a" stroke-width="1"/>
  <text x="807" y="660" text-anchor="middle" class="arrow-label">MAVLink UDP</text>

  <rect x="520" y="735" width="280" height="110" rx="8" fill="#ede7f6" stroke="#6a1b9a" stroke-width="2"/>
  <text x="660" y="765" text-anchor="middle" class="box-title">NebosvodConnect</text>
  <text x="660" y="785" text-anchor="middle" class="box-text">>B45;L=>5 ?@8;>65=85-H;N7</text>
  <text x="660" y="803" text-anchor="middle" class="box-text">?@8Q< MAVLink, ?@82O7:0 : ! 8 ?;0=C ?>;QB0</text>
  <text x="660" y="821" text-anchor="middle" class="proto">02B>@870F8O ?>;L7>20B5;O</text>

  <line x1="800" y1="790" x2="870" y2="790" stroke="#6a1b9a" stroke-width="2" marker-end="url(#arrow)"/>

  <rect x="870" y="735" width="220" height="110" rx="8" fill="#e8eaf6" stroke="#3949ab" stroke-width="2"/>
  <text x="980" y="772" text-anchor="middle" class="box-title">�51>A2>4�</text>
  <text x="980" y="792" text-anchor="middle" class="box-text">! <>=8B>@8=30 !</text>
  <text x="980" y="812" text-anchor="middle" class="box-text">HEPU / VEPU, >B>1@065=85 B@5:0</text>

  <!-- Legend -->
  <rect x="980" y="355" width="360" height="130" rx="6" fill="#fff" stroke="#ccc" stroke-width="1"/>
  <text x="1000" y="378" class="box-title">#A;>2=K5 >1>7=0G5=8O</text>
  <line x1="1000" y1="395" x2="1040" y2="395" stroke="#1976d2" stroke-width="2.5" marker-end="url(#arrow-blue)"/>
  <text x="1050" y="399" class="box-text">RC-F5?>G:0 (C?@02;5=85)</text>
  <line x1="1000" y1="420" x2="1040" y2="420" stroke="#e65100" stroke-width="2.5" marker-end="url(#arrow-orange)"/>
  <text x="1050" y="424" class="box-text">845>B@0:B</text>
  <line x1="1000" y1="445" x2="1040" y2="445" stroke="#2e7d32" stroke-width="2.5" marker-end="url(#arrow-green)"/>
  <text x="1050" y="449" class="box-text">1@01>B:0 2 DCT</text>
  <line x1="1000" y1="470" x2="1040" y2="470" stroke="#6a1b9a" stroke-width="2.5" marker-end="url(#arrow)"/>
  <text x="1050" y="474" class="box-text">=B53@0F8O A �51>A2>4�</text>

  <!-- Note -->
  <text x="700" y="900" text-anchor="middle" class="arrow-label">KG8A;5=8O 2K?>;=ONBAO =0 =075<=>9 AB0=F88; =0 ! =5 CAB0=02;8205BAO =02830F8>==0O 0??0@0BC@0</text>
</svg>
